<?xml version="1.0" encoding="iso-8859-1"?>
<!-- Uploaded to: SVG Repo, www.svgrepo.com, Generator: SVG Repo Mixer Tools -->
<svg height="800px" width="800px" version="1.1" id="Layer_1" xmlns="http://www.w3.org/2000/svg" xmlns:xlink="http://www.w3.org/1999/xlink" 
	 viewBox="0 0 512 512" xml:space="preserve">
<path style="fill:#FF3F62;" d="M488.727,69.818H256H23.273C10.42,69.818,0,80.238,0,93.091v325.818
	c0,12.853,10.42,23.273,23.273,23.273H256h232.727c12.853,0,23.273-10.42,23.273-23.273V93.091
	C512,80.238,501.58,69.818,488.727,69.818z"/>
<g>
	<path style="fill:#FFA733;" d="M250.325,312.855c-0.012-0.023-0.026-0.047-0.039-0.068c-2.14-3.713-4.543-7.253-7.18-10.6
		c-0.071-0.092-0.141-0.182-0.214-0.272c-0.624-0.788-1.263-1.564-1.915-2.33c-0.074-0.088-0.152-0.174-0.227-0.261
		c-1.95-2.273-4.017-4.444-6.186-6.507c-0.188-0.178-0.372-0.358-0.562-0.535c-0.635-0.593-1.278-1.174-1.93-1.75
		c-0.264-0.233-0.532-0.461-0.799-0.692c-0.647-0.557-1.297-1.112-1.961-1.651c-0.137-0.11-0.278-0.216-0.416-0.326
		c-1.278-1.027-2.591-2.012-3.927-2.968c-0.386-0.276-0.77-0.555-1.161-0.825c-0.59-0.408-1.188-0.804-1.787-1.196
		c-0.467-0.306-0.937-0.608-1.41-0.905c-0.576-0.362-1.153-0.721-1.738-1.072c-0.579-0.346-1.168-0.676-1.756-1.008
		c-0.776-0.439-1.556-0.869-2.347-1.285c-0.748-0.393-1.497-0.784-2.257-1.156c-0.509-0.25-1.027-0.487-1.542-0.728
		c-0.669-0.31-1.339-0.616-2.015-0.911c-0.51-0.222-1.022-0.442-1.538-0.656c-0.784-0.323-1.575-0.631-2.368-0.934
		c-0.406-0.155-0.808-0.318-1.218-0.465c-1.17-0.424-2.351-0.822-3.542-1.198c-0.4-0.127-0.808-0.24-1.212-0.362
		c-0.867-0.259-1.736-0.509-2.616-0.743c-0.461-0.123-0.922-0.24-1.385-0.357c-0.9-0.223-1.806-0.431-2.718-0.627
		c-0.393-0.084-0.782-0.175-1.178-0.254c-1.283-0.258-2.574-0.49-3.877-0.692c-0.259-0.04-0.521-0.068-0.782-0.107
		c-1.074-0.157-2.152-0.293-3.236-0.411c-0.436-0.047-0.874-0.087-1.313-0.127c-0.967-0.09-1.938-0.163-2.912-0.222
		c-0.416-0.025-0.83-0.054-1.249-0.073c-1.364-0.062-2.734-0.104-4.112-0.104c-48.803,0.003-88.367,39.564-88.367,88.371H256
		v-32.172C254.397,320.579,252.495,316.629,250.325,312.855z"/>
	<circle style="fill:#FFA733;" cx="173.692" cy="211.673" r="56.809"/>
	<path style="fill:#FFA733;" d="M323.6,333.576h72.037c12.853,0,23.273-10.42,23.273-23.273c0-12.853-10.42-23.273-23.273-23.273
		H323.6c-12.853,0-23.273,10.42-23.273,23.273C300.327,323.156,310.747,333.576,323.6,333.576z"/>
	<path style="fill:#FFA733;" d="M261.956,352.476c-0.031-0.645-0.093-1.283-0.138-1.925c-0.054-0.784-0.102-1.569-0.178-2.346
		c-0.082-0.85-0.194-1.693-0.301-2.537c-0.068-0.543-0.129-1.088-0.208-1.628c-0.143-0.985-0.313-1.963-0.49-2.937
		c-0.067-0.375-0.127-0.752-0.2-1.125c-0.213-1.086-0.447-2.164-0.697-3.235c-0.057-0.24-0.109-0.484-0.166-0.723
		c-0.284-1.164-0.59-2.319-0.918-3.465c-0.036-0.132-0.073-0.264-0.112-0.396c-0.355-1.218-0.734-2.427-1.139-3.623
		c-0.017-0.051-0.033-0.104-0.051-0.155c-0.425-1.247-0.875-2.484-1.354-3.707v32.172h6.066
		C262.066,355.382,262.028,353.925,261.956,352.476z"/>
	<path style="fill:#FFA733;" d="M323.6,224.97h72.037c12.853,0,23.273-10.42,23.273-23.273c0-12.853-10.42-23.273-23.273-23.273
		H323.6c-12.853,0-23.273,10.42-23.273,23.273C300.327,214.55,310.747,224.97,323.6,224.97z"/>
</g>
<path style="fill:#D8143A;" d="M23.273,442.182H256v-85.333H85.333c0-48.808,39.564-88.368,88.367-88.368
	c-31.373,0-56.809-25.434-56.809-56.807c0-31.376,25.437-56.807,56.809-56.807s56.809,25.432,56.809,56.807
	S205.072,268.48,173.7,268.48c1.379,0,2.748,0.042,4.112,0.104c0.419,0.019,0.833,0.048,1.249,0.073
	c0.974,0.059,1.946,0.132,2.912,0.222c0.438,0.04,0.875,0.081,1.313,0.127c1.085,0.118,2.164,0.256,3.236,0.411
	c0.261,0.037,0.523,0.067,0.782,0.107c1.303,0.202,2.594,0.434,3.877,0.692c0.396,0.079,0.785,0.171,1.178,0.254
	c0.912,0.196,1.818,0.403,2.718,0.627c0.464,0.115,0.925,0.233,1.385,0.357c0.878,0.233,1.749,0.483,2.616,0.743
	c0.403,0.121,0.811,0.234,1.212,0.362c1.193,0.375,2.372,0.774,3.542,1.198c0.41,0.149,0.811,0.312,1.218,0.465
	c0.794,0.301,1.584,0.61,2.368,0.934c0.517,0.214,1.027,0.433,1.538,0.656c0.676,0.295,1.347,0.6,2.015,0.911
	c0.515,0.24,1.033,0.478,1.542,0.728c0.76,0.372,1.51,0.763,2.257,1.156c0.791,0.416,1.572,0.844,2.347,1.285
	c0.588,0.332,1.178,0.664,1.756,1.008c0.585,0.349,1.161,0.709,1.738,1.072c0.473,0.296,0.943,0.599,1.41,0.905
	c0.6,0.393,1.199,0.788,1.787,1.196c0.391,0.27,0.774,0.549,1.161,0.825c1.336,0.954,2.648,1.942,3.927,2.968
	c0.138,0.11,0.279,0.214,0.416,0.326c0.664,0.538,1.313,1.094,1.961,1.651c0.267,0.23,0.535,0.459,0.799,0.692
	c0.653,0.574,1.296,1.157,1.93,1.75c0.189,0.177,0.374,0.357,0.562,0.535c2.169,2.064,4.236,4.234,6.186,6.507
	c0.074,0.087,0.152,0.172,0.227,0.261c0.652,0.765,1.289,1.542,1.915,2.33c0.073,0.09,0.143,0.182,0.214,0.272
	c2.641,3.347,5.041,6.887,7.18,10.6c0.014,0.023,0.028,0.045,0.039,0.068c2.172,3.775,4.073,7.723,5.675,11.823V69.818H23.273
	C10.42,69.818,0,80.238,0,93.091v325.818C0,431.762,10.42,442.182,23.273,442.182z"/>
<g>
	<path style="fill:#C3C3C7;" d="M218.872,280.9c0.585,0.349,1.162,0.709,1.738,1.072C220.033,281.609,219.457,281.249,218.872,280.9
		z"/>
	<path style="fill:#C3C3C7;" d="M199.076,272.196c0.403,0.121,0.811,0.234,1.212,0.362
		C199.888,272.432,199.478,272.319,199.076,272.196z"/>
	<path style="fill:#C3C3C7;" d="M191.181,270.217c0.396,0.079,0.785,0.171,1.178,0.254
		C191.966,270.387,191.576,270.296,191.181,270.217z"/>
	<path style="fill:#C3C3C7;" d="M243.105,302.186c2.638,3.347,5.041,6.887,7.18,10.6
		C248.146,309.073,245.746,305.532,243.105,302.186z"/>
	<path style="fill:#C3C3C7;" d="M203.83,273.757c0.41,0.149,0.811,0.312,1.218,0.465C204.642,274.067,204.24,273.904,203.83,273.757
		z"/>
	<path style="fill:#C3C3C7;" d="M186.522,269.417c0.261,0.037,0.523,0.067,0.782,0.107
		C187.044,269.484,186.782,269.455,186.522,269.417z"/>
	<path style="fill:#C3C3C7;" d="M177.811,268.584c0.419,0.019,0.833,0.048,1.249,0.073
		C178.646,268.632,178.23,268.603,177.811,268.584z"/>
	<path style="fill:#C3C3C7;" d="M181.973,268.879c0.438,0.04,0.875,0.081,1.313,0.127
		C182.849,268.958,182.41,268.919,181.973,268.879z"/>
	<path style="fill:#C3C3C7;" d="M207.416,275.157c0.515,0.214,1.027,0.433,1.538,0.656
		C208.445,275.589,207.934,275.369,207.416,275.157z"/>
	<path style="fill:#C3C3C7;" d="M232.071,290.531c0.652,0.576,1.296,1.157,1.93,1.75
		C233.367,291.688,232.724,291.105,232.071,290.531z"/>
	<path style="fill:#C3C3C7;" d="M210.97,276.722c0.515,0.24,1.033,0.478,1.542,0.728
		C212.004,277.201,211.485,276.964,210.97,276.722z"/>
	<path style="fill:#C3C3C7;" d="M229.312,288.189c0.664,0.538,1.314,1.094,1.961,1.651
		C230.625,289.283,229.976,288.728,229.312,288.189z"/>
	<path style="fill:#C3C3C7;" d="M240.975,299.584c0.652,0.765,1.291,1.542,1.915,2.33
		C242.266,301.126,241.627,300.35,240.975,299.584z"/>
	<path style="fill:#C3C3C7;" d="M214.77,278.607c0.791,0.416,1.572,0.844,2.347,1.285
		C216.342,279.451,215.561,279.023,214.77,278.607z"/>
	<path style="fill:#C3C3C7;" d="M222.022,282.875c0.6,0.393,1.199,0.788,1.787,1.196
		C223.22,283.665,222.621,283.268,222.022,282.875z"/>
	<path style="fill:#C3C3C7;" d="M224.97,284.895c1.336,0.954,2.648,1.941,3.927,2.968
		C227.618,286.838,226.306,285.851,224.97,284.895z"/>
	<path style="fill:#C3C3C7;" d="M195.075,271.098c0.464,0.115,0.925,0.233,1.385,0.357C196,271.332,195.539,271.214,195.075,271.098
		z"/>
	<path style="fill:#C3C3C7;" d="M240.75,299.323c-1.952-2.273-4.017-4.444-6.186-6.507C236.733,294.881,238.8,297.05,240.75,299.323
		z"/>
	<path style="fill:#C3C3C7;" d="M256,324.676c-1.603-4.099-3.503-8.048-5.675-11.823C252.495,316.629,254.397,320.579,256,324.676
		L256,324.676z"/>
</g>
<g>
	<path style="fill:#D6D5D8;" d="M257.406,328.538c0.406,1.195,0.785,2.403,1.139,3.623
		C258.191,330.941,257.812,329.734,257.406,328.538z"/>
	<path style="fill:#D6D5D8;" d="M261.337,345.668c0.107,0.844,0.22,1.686,0.301,2.537
		C261.558,347.353,261.446,346.512,261.337,345.668z"/>
	<path style="fill:#D6D5D8;" d="M260.639,341.104c0.177,0.974,0.349,1.952,0.49,2.937
		C260.988,343.054,260.816,342.078,260.639,341.104z"/>
	<path style="fill:#D6D5D8;" d="M261.818,350.551c0.045,0.642,0.105,1.28,0.138,1.925
		C261.924,351.831,261.863,351.193,261.818,350.551z"/>
	<path style="fill:#D6D5D8;" d="M258.658,332.556c0.329,1.145,0.635,2.301,0.918,3.465
		C259.294,334.856,258.985,333.701,258.658,332.556z"/>
	<path style="fill:#D6D5D8;" d="M259.742,336.744c0.25,1.071,0.486,2.149,0.697,3.235
		C260.229,338.891,259.991,337.816,259.742,336.744z"/>
	<path style="fill:#D6D5D8;" d="M257.354,328.383c-0.424-1.249-0.875-2.484-1.354-3.707l0,0
		C256.479,325.899,256.929,327.135,257.354,328.383z"/>
</g>
</svg>