<?xml version="1.0" encoding="utf-8"?><!-- Uploaded to: SVG Repo, www.svgrepo.com, Generator: SVG Repo Mixer Tools -->
<svg width="800px" height="800px" viewBox="0 0 32 32" fill="none" xmlns="http://www.w3.org/2000/svg">
<path d="M23 2H9C7.34315 2 6 3.34315 6 5V27C6 28.6569 7.34315 30 9 30H23C24.6569 30 26 28.6569 26 27V5C26 3.34315 24.6569 2 23 2Z" fill="#CFD8DC"/>
<path d="M21 25.9999C20.8684 26.0007 20.7379 25.9755 20.6161 25.9257C20.4943 25.8759 20.3834 25.8026 20.29 25.7099L17.29 22.7099C17.1017 22.5216 16.9959 22.2662 16.9959 21.9999C16.9959 21.7336 17.1017 21.4782 17.29 21.2899C17.4783 21.1016 17.7337 20.9958 18 20.9958C18.2663 20.9958 18.5217 21.1016 18.71 21.2899L21.71 24.2899C21.8037 24.3829 21.8781 24.4935 21.9289 24.6154C21.9797 24.7372 22.0058 24.8679 22.0058 24.9999C22.0058 25.132 21.9797 25.2627 21.9289 25.3845C21.8781 25.5064 21.8037 25.617 21.71 25.7099C21.6166 25.8026 21.5057 25.8759 21.3839 25.9257C21.2621 25.9755 21.1316 26.0007 21 25.9999Z" fill="#E53935"/>
<path d="M18 25.9999C17.8684 26.0007 17.7379 25.9755 17.6161 25.9257C17.4943 25.8759 17.3834 25.8026 17.29 25.7099C17.1963 25.617 17.1219 25.5064 17.0711 25.3845C17.0203 25.2627 16.9942 25.132 16.9942 24.9999C16.9942 24.8679 17.0203 24.7372 17.0711 24.6154C17.1219 24.4935 17.1963 24.3829 17.29 24.2899L20.29 21.2899C20.4783 21.1016 20.7337 20.9958 21 20.9958C21.2663 20.9958 21.5217 21.1016 21.71 21.2899C21.8983 21.4782 22.0041 21.7336 22.0041 21.9999C22.0041 22.2662 21.8983 22.5216 21.71 22.7099L18.71 25.7099C18.6166 25.8026 18.5057 25.8759 18.3839 25.9257C18.2621 25.9755 18.1316 26.0007 18 25.9999Z" fill="#E53935"/>
<path d="M12 26H11.94C11.7657 25.9888 11.5973 25.9321 11.4517 25.8356C11.3061 25.7391 11.1883 25.6062 11.11 25.45L10.11 23.45C10.0129 23.2169 10.0076 22.9557 10.0952 22.7189C10.1827 22.482 10.3566 22.2871 10.5819 22.1731C10.8073 22.0592 11.0674 22.0347 11.31 22.1046C11.5526 22.1745 11.7598 22.3336 11.89 22.55L12.12 23.01L13.17 21.45C13.3263 21.2559 13.5494 21.1272 13.7956 21.0891C14.0419 21.0509 14.2935 21.106 14.5012 21.2437C14.7089 21.3813 14.8577 21.5915 14.9185 21.8332C14.9793 22.0748 14.9478 22.3304 14.83 22.55L12.83 25.55C12.7394 25.6875 12.6162 25.8006 12.4715 25.8791C12.3267 25.9576 12.1647 25.9991 12 26Z" fill="#689F38"/>
<path d="M26 17H6V19H26V17Z" fill="#304046"/>
<path d="M14 11H11C10.7348 11 10.4804 10.8946 10.2929 10.7071C10.1054 10.5196 10 10.2652 10 10V7C10 6.73478 10.1054 6.48043 10.2929 6.29289C10.4804 6.10536 10.7348 6 11 6H14C14.2652 6 14.5196 6.10536 14.7071 6.29289C14.8946 6.48043 15 6.73478 15 7V10C15 10.2652 14.8946 10.5196 14.7071 10.7071C14.5196 10.8946 14.2652 11 14 11ZM12 9H13V8H12V9Z" fill="#1565C0"/>
<path d="M21 15H11C10.7348 15 10.4804 14.8946 10.2929 14.7071C10.1054 14.5196 10 14.2652 10 14C10 13.7348 10.1054 13.4804 10.2929 13.2929C10.4804 13.1054 10.7348 13 11 13H21C21.2652 13 21.5196 13.1054 21.7071 13.2929C21.8946 13.4804 22 13.7348 22 14C22 14.2652 21.8946 14.5196 21.7071 14.7071C21.5196 14.8946 21.2652 15 21 15Z" fill="#304046"/>
<path d="M21 8H18C17.7348 8 17.4804 7.89464 17.2929 7.70711C17.1054 7.51957 17 7.26522 17 7C17 6.73478 17.1054 6.48043 17.2929 6.29289C17.4804 6.10536 17.7348 6 18 6H21C21.2652 6 21.5196 6.10536 21.7071 6.29289C21.8946 6.48043 22 6.73478 22 7C22 7.26522 21.8946 7.51957 21.7071 7.70711C21.5196 7.89464 21.2652 8 21 8Z" fill="#304046"/>
<path d="M21 11H18C17.7348 11 17.4804 10.8946 17.2929 10.7071C17.1054 10.5196 17 10.2652 17 10C17 9.73478 17.1054 9.48043 17.2929 9.29289C17.4804 9.10536 17.7348 9 18 9H21C21.2652 9 21.5196 9.10536 21.7071 9.29289C21.8946 9.48043 22 9.73478 22 10C22 10.2652 21.8946 10.5196 21.7071 10.7071C21.5196 10.8946 21.2652 11 21 11Z" fill="#304046"/>
<path d="M9 2C8.20435 2 7.44129 2.31607 6.87868 2.87868C6.31607 3.44129 6 4.20435 6 5V27C6 27.7956 6.31607 28.5587 6.87868 29.1213C7.44129 29.6839 8.20435 30 9 30H16V2H9Z" fill="#EEEEEE"/>
<path d="M13.17 21.45L12.12 23L11.89 22.54C11.7598 22.3236 11.5526 22.1645 11.31 22.0946C11.0674 22.0247 10.8073 22.0492 10.5819 22.1631C10.3566 22.2771 10.1827 22.472 10.0952 22.7088C10.0076 22.9457 10.0129 23.2069 10.11 23.44L11.11 25.44C11.1883 25.5961 11.3061 25.7291 11.4517 25.8256C11.5973 25.9221 11.7657 25.9788 11.94 25.99H12C12.1647 25.9891 12.3267 25.9476 12.4715 25.8691C12.6162 25.7906 12.7394 25.6775 12.83 25.54L14.83 22.54C14.9478 22.3204 14.9793 22.0648 14.9185 21.8231C14.8577 21.5815 14.7089 21.3713 14.5012 21.2337C14.2935 21.096 14.0419 21.0409 13.7956 21.0791C13.5494 21.1172 13.3263 21.2459 13.17 21.44V21.45Z" fill="#689F38"/>
<path d="M16 17H6V19H16V17Z" fill="#616161"/>
<path d="M14 11H11C10.7348 11 10.4804 10.8946 10.2929 10.7071C10.1054 10.5196 10 10.2652 10 10V7C10 6.73478 10.1054 6.48043 10.2929 6.29289C10.4804 6.10536 10.7348 6 11 6H14C14.2652 6 14.5196 6.10536 14.7071 6.29289C14.8946 6.48043 15 6.73478 15 7V10C15 10.2652 14.8946 10.5196 14.7071 10.7071C14.5196 10.8946 14.2652 11 14 11ZM12 9H13V8H12V9Z" fill="#1565C0"/>
<path d="M11 13C10.7348 13 10.4804 13.1054 10.2929 13.2929C10.1054 13.4804 10 13.7348 10 14C10 14.2652 10.1054 14.5196 10.2929 14.7071C10.4804 14.8946 10.7348 15 11 15H16V13H11Z" fill="#616161"/>
</svg>