<?xml version="1.0" encoding="utf-8"?>
<!-- Uploaded to: SVG Repo, www.svgrepo.com, Generator: SVG Repo Mixer Tools -->
<svg width="800px" height="800px" viewBox="0 0 1024 1024" class="icon"  version="1.1" xmlns="http://www.w3.org/2000/svg"><path d="M576 170.666667h-128a42.666667 42.666667 0 0 0-42.666667 42.666666v64a21.333333 21.333333 0 0 0 21.333334 21.333334h21.333333v-85.333334h128v85.333334h21.333333a21.333333 21.333333 0 0 0 21.333334-21.333334v-64a42.666667 42.666667 0 0 0-42.666667-42.666666" fill="#795548" /><path d="M874.666667 256H149.333333a42.666667 42.666667 0 0 0-42.666666 42.666667v512a42.666667 42.666667 0 0 0 42.666666 42.666666h725.333334a42.666667 42.666667 0 0 0 42.666666-42.666666V298.666667a42.666667 42.666667 0 0 0-42.666666-42.666667" fill="#FF8F00" /><path d="M192 234.666667h64v21.333333H192zM768 234.666667h64v21.333333h-64z" fill="#78909C" /><path d="M277.333333 256h42.666667v597.333333h-42.666667zM704 256h42.666667v597.333333h-42.666667z" fill="#D67C05" /><path d="M490.666667 426.666667m-85.333334 0a85.333333 85.333333 0 1 0 170.666667 0 85.333333 85.333333 0 1 0-170.666667 0Z" fill="#FFECB3" /><path d="M853.333333 607.68L585.514667 746.666667 533.333333 651.029333 801.152 512z" fill="#FFD180" /></svg>